PathFileType	4	(X/Y/Z)	Kaydara																																																																																																																																																																																																																																																	
DataRate	CameraRate	NumFrames	NumMarkers	Units	OrigDataRate	OrigDataStartFrame	OrigNumFrames																																																																																																																																																																																																																																													
30	30	8	41	mm	30	133	273																																																																																																																																																																																																																																													
Frame#	Time	SALE_LFHD			SALE_RFHD			SALE_LBHD			SALE_RBHD			SALE_LFTShould			SALE_RFTShould			SALE_LRRShould			SALE_RRRShould			SALE_T10			SALE_STRN			SALE_TRUN			SALE_LSHO			SALE_LUPA			SALE_LELB			SALE_LFRM			SALE_LWRA			SALE_LWRB			SALE_LFIN			SALE_RSHO			SALE_RUPA			SALE_RELB			SALE_RFRM			SALE_RWRB			SALE_RFIN			SALE_LFWT			SALE_RFWT			SALE_LBWT			SALE_RBWT			SALE_LTHI			SALE_LKNE			SALE_RWRA			SALE_LSHN			SALE_LANK			SALE_LHEE			SALE_LTOE			SALE_RTHI			SALE_RKNE			SALE_RSHN			SALE_RANK			SALE_RHEE			SALE_RTOE																																																																																																																										
		X1	Y1	Z1	X2	Y2	Z2	X3	Y3	Z3	X4	Y4	Z4	X5	Y5	Z5	X6	Y6	Z6	X7	Y7	Z7	X8	Y8	Z8	X9	Y9	Z9	X10	Y10	Z10	X11	Y11	Z11	X12	Y12	Z12	X13	Y13	Z13	X14	Y14	Z14	X15	Y15	Z15	X16	Y16	Z16	X17	Y17	Z17	X18	Y18	Z18	X19	Y19	Z19	X20	Y20	Z20	X21	Y21	Z21	X22	Y22	Z22	X23	Y23	Z23	X24	Y24	Z24	X25	Y25	Z25	X26	Y26	Z26	X27	Y27	Z27	X28	Y28	Z28	X29	Y29	Z29	X30	Y30	Z30	X31	Y31	Z31	X32	Y32	Z32	X33	Y33	Z33	X34	Y34	Z34	X35	Y35	Z35	X36	Y36	Z36	X37	Y37	Z37	X38	Y38	Z38	X39	Y39	Z39	X40	Y40	Z40	X41	Y41	Z41																																																																																																																							Y81	Z81
																																																																																																																																																																																																																																																				
103	4.4	256.79676	1598.83179	-1552.78412	126.02601	1601.20758	-1553.77533	255.44882	1616.77063	-1683.71521	129.36539	1616.94809	-1678.4671	265.85443	1353.20953	-1647.40173	124.96197	1348.36823	-1643.81393	257.27839	1427.7594	-1749.44824	104.80646	1428.0217	-1738.05893	181.03703	1285.74966	-1835.2713	194.8518	1273.00255	-1609.33884	196.27094	1182.11319	-1580.70374	379.76868	1389.82758	-1711.70181	426.98418	1175.67543	-1743.68561	416.74347	1067.30225	-1770.24628	447.63756	961.87469	-1743.5939	387.07428	821.6333	-1679.30771	453.6359	816.31119	-1717.5441	451.77822	773.91312	-1669.44046	14.36016	1384.46594	-1697.62146	-18.26933	1164.40712	-1789.33777	-43.44192	1058.47946	-1757.86392	-35.02124	947.43561	-1781.03668	-48.16374	806.7485	-1755.4454	-53.88951	759.69009	-1702.96967	330.55351	952.94426	-1665.33539	52.05561	948.94119	-1660.82123	267.2904	1022.3671	-1828.15338	85.70751	1020.18265	-1829.01367	316.12177	706.46515	-1901.60187	313.48379	519.92695	-1885.31708	-2.17991	812.10617	-1693.47809	306.36744	332.90771	-1961.96823	296.3765	177.28838	-2073.47946	261.26089	157.06797	-2148.00858	251.39874	78.67845	-1969.30893	43.39958	684.52614	-1770.95932	71.4294	553.75954	-1630.37537	130.19717	372.88815	-1599.90997	93.76193	116.54636	-1583.94501	104.97928	75.84141	-1457.06131	145.56574	57.76064	-1642.78412																																																																																																																							0	-0.00191
104	4.433	250.72956	1602.50534	-1530.96771	119.97002	1604.51675	-1530.92316	248.2906	1619.64523	-1662.02896	122.21542	1619.52087	-1655.70175	260.1231	1356.5152	-1623.57361	119.25841	1350.58899	-1619.64706	250.82283	1430.63705	-1726.30569	98.47947	1429.20639	-1714.42474	176.24701	1286.98288	-1810.98129	190.01852	1276.42639	-1584.44473	192.22195	1185.91927	-1554.39255	373.81279	1393.87451	-1688.43338	420.31223	1179.82079	-1722.09717	409.91714	1071.36154	-1747.8154	442.08431	966.11786	-1723.15735	383.62125	824.10217	-1660.57297	449.35776	819.78951	-1700.36636	449.09115	777.01485	-1652.8363	8.49174	1385.49377	-1673.72238	-23.9108	1163.88992	-1761.08688	-47.46086	1058.36372	-1728.08334	-39.96145	948.03741	-1752.79327	-51.00794	805.5999	-1726.03134	-58.37448	759.09988	-1677.17209	326.6367	954.32846	-1635.88669	49.22606	957.26013	-1630.75577	266.23802	1023.05199	-1799.66522	85.27068	1026.4183	-1800.09644	310.88501	706.23901	-1870.89554	310.38086	520.01347	-1854.67545	-6.3116	811.52321	-1667.71011	305.68813	335.09876	-1940.48203	300.18934	185.00826	-2059.56833	266.6218	170.01299	-2135.91064	251.60015	76.72728	-1965.0238	35.53549	695.3614	-1748.66058	68.44242	558.42369	-1612.1051	127.83591	373.86688	-1590.09232	93.82841	117.76528	-1580.159	105.50752	74.8301	-1455.84335	144.16799	58.16838	-1642.52457																																																																																																																							0	-0.00191
105	4.467	244.16992	1608.57712	-1509.561	113.45132	1609.4313	-1508.8176	240.75546	1624.69681	-1640.6572	114.8184	1623.43842	-1633.70193	255.48101	1364.01733	-1599.05533	114.55072	1356.57455	-1595.36011	244.59644	1434.82773	-1703.2225	93.09482	1432.01614	-1691.60217	171.99892	1289.05548	-1785.74097	185.50209	1283.95508	-1558.7912	188.59451	1194.26064	-1526.521	368.17528	1401.25275	-1665.25223	414.77966	1187.60071	-1699.99359	402.82368	1079.50928	-1725.80338	436.05331	974.19724	-1702.80029	379.36016	830.71198	-1641.05026	444.84982	828.07953	-1682.37381	444.94129	783.55988	-1635.73288	3.35297	1389.24484	-1650.10956	-28.31941	1166.90498	-1733.35327	-51.76704	1061.72775	-1698.55759	-44.80587	951.57196	-1723.25226	-57.54557	809.62852	-1696.77673	-62.63227	762.17712	-1647.64053	323.18428	957.54471	-1608.1076	46.27488	962.74887	-1600.87967	263.07045	1026.37749	-1771.4682	82.71367	1031.61392	-1770.3569	304.66213	703.12515	-1837.89902	307.41314	517.09038	-1815.44983	-10.10419	814.34875	-1639.62173	304.88867	334.65199	-1912.69073	303.97736	192.90876	-2041.75827	271.77214	184.89002	-2119.61639	251.37398	73.91022	-1960.48935	29.83838	701.62659	-1726.1116	64.68203	559.33777	-1597.58148	123.66364	374.31801	-1582.43088	92.19281	116.08238	-1583.05634	104.85158	74.05361	-1455.83725	142.69193	57.80902	-1643.16086																																																																																																																							0	-0.00191
106	4.5	237.63992	1615.41199	-1489.47937	106.95982	1614.3251	-1488.20862	233.48009	1628.90244	-1620.70114	107.58094	1626.08841	-1613.18985	251.35265	1370.66589	-1574.10538	110.27704	1361.87775	-1570.16098	238.56586	1438.2312	-1679.72183	88.0352	1434.17511	-1667.53662	167.03781	1290.65262	-1759.76105	181.95232	1291.00342	-1532.54242	186.09753	1201.92398	-1498.70972	362.81685	1407.7623	-1642.40021	410.74989	1194.95605	-1677.16873	397.40238	1087.19894	-1703.9122	430.99289	981.41296	-1681.72653	374.65286	837.3069	-1620.47394	439.63295	834.83704	-1662.68219	439.58992	789.20868	-1616.69159	-1.25849	1392.31491	-1624.86542	-31.81227	1170.20935	-1706.53763	-56.15475	1065.19119	-1670.68405	-49.56828	954.515	-1693.47107	-63.70397	813.29582	-1664.63821	-66.40546	765.89828	-1614.69818	320.79231	960.40794	-1583.70667	44.55442	964.27101	-1572.69028	257.55224	1028.85414	-1746.16348	77.86538	1034.66675	-1742.2113	298.4934	693.7085	-1801.5271	304.63257	509.03709	-1767.94037	-13.19027	817.81288	-1609.60602	304.26311	330.91148	-1878.49854	306.94733	200.84995	-2019.12079	276.3232	201.93497	-2097.24808	249.90566	70.577	-1955.63156	27.84243	703.63617	-1707.05643	60.08667	558.507	-1582.76611	121.333	374.23084	-1572.76276	91.52431	116.681	-1581.15311	105.17237	73.17005	-1454.98947	142.15589	58.06278	-1642.94998																																																																																																																							0	-0.00191
107	4.533	231.5571	1620.69763	-1470.39291	100.86463	1617.83218	-1468.55789	226.60351	1629.89609	-1601.97433	100.827	1625.64804	-1593.84872	247.74406	1373.97385	-1549.8613	106.98195	1363.35144	-1544.22012	233.12359	1439.56787	-1655.62943	83.16827	1434.54132	-1641.85379	161.69046	1291.18958	-1734.16382	179.54563	1293.86368	-1506.35406	184.72578	1204.58031	-1472.75208	358.111	1410.91431	-1619.67453	407.20917	1198.74184	-1654.7258	393.98212	1090.97755	-1682.01965	427.08786	985.00603	-1659.57199	369.96922	841.12381	-1598.69415	434.58027	837.86072	-1640.46829	433.83926	791.92261	-1594.69147	-5.22653	1392.89536	-1597.72537	-35.92968	1171.62743	-1679.33655	-61.44407	1066.52237	-1642.69424	-54.98788	954.70123	-1663.37067	-68.40551	814.03282	-1631.83701	-70.14128	768.11813	-1580.08865	318.08735	960.58792	-1561.3446	41.64927	965.49644	-1547.19727	253.4289	1027.93205	-1723.48785	74.2974	1036.03577	-1717.08481	293.59631	678.2428	-1762.12051	302.19053	497.08622	-1713.66455	-16.82003	819.89395	-1576.78055	303.29325	325.33302	-1837.4649	308.00581	209.60152	-1989.62082	279.57958	221.63191	-2066.45538	248.20803	70.46096	-1946.28967	25.50028	707.61665	-1687.32239	57.28688	559.39171	-1567.98477	118.89174	374.14024	-1562.72858	91.55496	116.76537	-1580.3923	105.31264	72.71565	-1454.60419	142.27387	58.21539	-1642.80426																																																																																																																							0	-0.00191
108	4.567	225.84137	1623.57498	-1451.49261	95.4149	1618.74924	-1449.06784	220.34822	1628.37387	-1583.38928	94.71825	1622.45193	-1574.59732	244.91211	1372.73773	-1526.76575	104.63676	1361.26831	-1518.43079	228.75937	1439.07455	-1632.27371	78.8454	1433.14667	-1615.4628	156.60645	1290.58212	-1709.95789	178.14699	1291.78116	-1481.95709	184.21534	1202.18788	-1449.40079	354.44241	1410.41733	-1597.71439	403.95615	1198.41248	-1633.78433	391.15414	1090.59677	-1661.39938	423.70663	984.45168	-1637.45346	365.39875	841.6526	-1575.44235	430.59109	837.48489	-1616.32782	428.65734	791.94145	-1570.10208	-8.4602	1390.78659	-1569.67819	-41.78034	1169.63654	-1650.69397	-66.97939	1064.37538	-1613.70255	-60.32552	951.89995	-1632.74063	-71.9137	811.576	-1598.01865	-73.8419	767.66815	-1544.80698	315.41122	958.46092	-1540.3804	38.33216	966.20827	-1523.66623	251.04792	1024.20509	-1702.73376	71.93726	1036.24886	-1693.68896	289.71714	661.94008	-1719.69238	302.13614	485.70084	-1656.54388	-20.05647	819.14551	-1544.20074	302.00825	321.31859	-1791.08246	306.88225	219.69259	-1952.69485	279.58296	242.20297	-2026.40274	246.96516	75.26748	-1927.72766	23.08931	710.22408	-1668.31512	53.82688	559.08241	-1554.21036	116.13953	373.63811	-1554.0654	91.18435	116.3492	-1580.29953	105.40101	72.46466	-1454.40414	142.03327	58.24416	-1642.80228																																																																																																																							0	-0.00191
109	4.6	221.30714	1624.32037	-1432.45758	90.67283	1617.17697	-1429.13528	214.97974	1625.38528	-1564.19067	89.51616	1617.41058	-1554.80988	243.34459	1368.97629	-1504.96582	103.49748	1357.00531	-1493.79089	225.39593	1436.92169	-1609.92599	75.41477	1430.68436	-1589.6489	151.83278	1288.85712	-1687.13348	177.8896	1287.0871	-1459.54666	184.81571	1197.40707	-1427.82455	351.74232	1407.6236	-1577.38068	400.94864	1195.49782	-1614.71069	388.16456	1087.38564	-1641.93024	420.26054	981.12137	-1616.07864	361.43059	840.05333	-1550.82275	426.61472	834.75548	-1591.62155	424.68304	790.58022	-1544.22104	-10.61931	1387.27631	-1542.18796	-48.30667	1165.08751	-1620.87631	-71.92682	1060.18959	-1582.94083	-65.45128	947.35123	-1600.58899	-75.06942	807.38892	-1562.94342	-76.94444	765.37102	-1508.66348	313.59707	955.71724	-1520.6778	37.51173	965.93216	-1499.93011	248.30593	1019.96567	-1683.04596	68.90451	1035.62439	-1670.70343	287.83157	648.25348	-1675.01862	301.97266	478.18375	-1597.39288	-23.26259	816.84143	-1509.59335	300.82504	321.12835	-1740.83527	303.89404	231.81564	-1909.58572	272.30341	256.84368	-1982.35046	254.18657	86.51565	-1886.4241	17.41433	711.71585	-1648.6937	50.7775	558.07209	-1540.40268	114.47225	372.88475	-1547.62421	90.28728	116.05345	-1578.99689	105.47382	72.25141	-1454.34219	141.40358	58.28747	-1642.94769																																																																																																																							0	-0.00191
110	4.633	217.54908	1624.42139	-1412.24823	87.06175	1614.74731	-1408.3931	210.73515	1622.89719	-1543.99551	85.42528	1612.74109	-1534.07211	242.61501	1365.60104	-1484.00726	103.33985	1353.42957	-1470.14877	222.99906	1435.03387	-1588.33786	72.90379	1428.71582	-1564.90662	147.61671	1287.5058	-1665.05447	178.70897	1282.97195	-1438.74557	186.02228	1193.14651	-1407.15454	350.03372	1404.66003	-1558.349	397.91927	1191.99226	-1596.65573	384.75468	1083.5154	-1622.84164	416.61316	977.30736	-1595.22781	358.07198	838.39867	-1525.53391	422.96074	831.92841	-1567.16217	421.81866	789.45618	-1518.32901	-11.74497	1384.24896	-1516.57639	-53.16315	1160.09094	-1591.07056	-75.45508	1056.16409	-1550.24536	-69.79026	943.23532	-1566.49948	-77.9287	803.1897	-1526.70868	-78.7175	762.89207	-1471.59897	311.38062	954.00291	-1500.91141	36.76796	965.73944	-1476.93832	244.89706	1016.77513	-1663.58643	65.18933	1034.22791	-1648.76862	288.0818	638.6478	-1631.15952	300.88871	475.83157	-1538.78281	-25.04527	814.11362	-1474.90097	299.01896	322.35271	-1686.06415	298.85664	238.6754	-1857.06253	262.30791	261.57372	-1930.50949	261.36553	94.73826	-1827.80487	13.28187	713.40088	-1631.29501	48.12366	556.97674	-1527.31857	112.30468	372.14195	-1539.93073	90.00263	115.69491	-1578.5141	105.34406	72.0592	-1454.32129	141.24451	58.37358	-1643.00583																																																																																																																							0	-0.00191
